<svg id="Layer_1" data-name="Layer 1" xmlns="http://www.w3.org/2000/svg" viewBox="0 0 61.16 244"><defs><style>.cls-1{fill:#231f20;}.cls-2{fill:#626364;}</style></defs><title>bullet2</title><path class="cls-1" d="M336.21,505.15l-7,.28v6.35l6.71,0.51V519H275.4v-6.66l6.82-.59v-6.28l-7.09-.37c0-1.43,0-2.8,0-4.17q0-61.55,0-123.1c0-1.66-.31-3.65.58-4.93,3.79-5.45,3.35-11.38,3.31-17.31-0.05-7.11,0-14.22,0-21.55l4.14-.9c0.11-.93.26-1.93,0.34-2.93,0.86-10,.78-20.22,2.87-30.06,1.44-6.79,5-13.58,9.2-19.51,5.48-7.68,14.24-7.38,20.45,0,7.5,8.87,10,19.3,11,29.92,0.69,7.43.13,14.95,0.13,22.46l5.18,0.95c0,9.73,0,19.42,0,29.1,0,1.52-.06,3.28.76,4.52,3.13,4.73,3.15,9.79,3.14,15q-0.13,59,0,118.05C336.21,502,336.21,503.41,336.21,505.15Z" transform="translate(-275.09 -275)"/><path class="cls-2" d="M316.41,280.61c-6.21-7.34-15-7.64-20.45,0-4.22,5.92-7.75,12.72-9.2,19.51-2.09,9.84-2,20-2.87,30.06-0.08.9-.2,1.8-0.31,2.66h44c0-7.47.55-14.95-.13-22.34C326.43,299.91,323.91,289.48,316.41,280.61Z" transform="translate(-275.09 -275)"/></svg>